<?xml version="1.0" standalone="no"?>
<!DOCTYPE svg PUBLIC "-//W3C//DTD SVG 20010904//EN"
 "http://www.w3.org/TR/2001/REC-SVG-20010904/DTD/svg10.dtd">
<svg version="1.0" xmlns="http://www.w3.org/2000/svg"
 width="1200.000000pt" height="1200.000000pt" viewBox="0 0 1200.000000 1200.000000"
 preserveAspectRatio="xMidYMid meet">

<g transform="translate(0.000000,1200.000000) scale(0.100000,-0.100000)"
fill="#000000" stroke="none">
<path d="M1020 9943 c-44 -6 -114 -26 -140 -38 -14 -7 -36 -16 -50 -19 -21 -6
-22 -5 -7 4 9 6 17 15 17 21 0 15 -63 -31 -96 -71 -40 -48 -57 -76 -80 -135
-19 -49 -19 -121 -22 -2860 -2 -1998 0 -2829 8 -2875 21 -126 93 -232 201
-297 113 -68 -59 -63 2406 -63 l2233 0 0 -585 0 -585 -402 0 c-614 -1 -729
-14 -870 -99 -131 -79 -120 -60 -111 -186 l8 -110 55 -20 c54 -20 80 -20 1835
-20 1663 0 1784 1 1836 17 31 10 61 23 67 30 6 7 12 59 13 116 l3 104 -90 55
c-109 67 -111 68 -226 89 -74 13 -192 17 -585 21 l-493 5 0 584 0 584 2219 0
c1443 0 2237 4 2271 10 156 30 288 153 330 308 8 31 11 794 11 2880 0 3080 3
2877 -54 2975 -27 46 -125 143 -134 133 -3 -3 0 -12 7 -21 16 -20 9 -19 -43 4
-23 10 -58 25 -77 33 -29 11 -634 13 -3589 16 -1955 1 -3559 -2 -3563 -6 -5
-5 -30 -5 -56 -1 -46 8 -2783 10 -2832 2z m5028 -95 c7 -7 12 -24 12 -38 0
-34 -17 -50 -52 -50 -36 0 -54 33 -39 73 8 21 17 27 39 27 15 0 33 -5 40 -12z
m5036 -170 c14 -20 16 -308 16 -2864 0 -2738 -1 -2841 -18 -2857 -20 -18 384
-17 -8679 -17 -1297 0 -1443 2 -1457 16 -14 14 -16 287 -16 2857 0 2557 2
2845 16 2865 l15 22 5054 0 5054 0 15 -22z m-5030 -5814 c23 -22 20 -24 -14
-11 -23 9 -35 9 -50 -1 -30 -19 -38 -14 -11 8 28 24 54 25 75 4z m3723 -30
c-3 -3 -12 -4 -19 -1 -8 3 -5 6 6 6 11 1 17 -2 13 -5z m-3258 -814 c0 -436 -3
-580 -12 -580 -9 0 -11 143 -9 585 1 369 6 584 12 580 6 -4 9 -228 9 -585z
m1341 -789 c-48 -28 -212 -31 -1803 -30 -898 1 -1675 4 -1727 8 -52 4 699 9
1670 10 971 1 1785 6 1810 10 62 12 67 12 50 2z"/>
<path d="M5997 9824 c-4 -4 -7 -16 -7 -26 0 -14 6 -19 23 -16 14 2 22 10 22
23 0 20 -25 32 -38 19z m23 -24 c0 -5 -2 -10 -4 -10 -3 0 -8 5 -11 10 -3 6 -1
10 4 10 6 0 11 -4 11 -10z"/>
</g>
</svg>
